<svg width="103" height="32" viewBox="0 0 103 32" fill="none" xmlns="http://www.w3.org/2000/svg">
<g clip-path="url(#clip0_41_13)">
<path d="M8.80701 0H1.77295C0.795765 0 0 0.802277 0 1.78746V33.388C0 34.3732 0.795765 35.1755 1.77295 35.1755H8.80701C9.78419 35.1755 10.58 34.3732 10.58 33.388V1.78746C10.58 0.802277 9.78419 0 8.80701 0Z" fill="#222222"/>
<path d="M35.9041 35.1755H27.7816C27.1466 35.1755 26.5652 34.8346 26.2478 34.2818L17.3294 18.7101C17.0119 18.1572 17.0119 17.4755 17.3294 16.9226L26.5075 0.893728C26.825 0.340864 27.4105 0 28.0413 0H43.7711C44.406 0 44.9874 0.340864 45.3049 0.893728L58.2886 23.5612C58.6061 24.114 58.6061 24.7958 58.2886 25.3486L54.2232 32.4403C53.5388 33.6291 51.8318 33.6291 51.1515 32.4403L37.4379 8.50081C36.7535 7.31195 35.0465 7.31195 34.3662 8.50081L29.5421 16.9268C29.2247 17.4797 29.2247 18.1614 29.5421 18.7143L37.4338 32.4985C38.1183 33.6915 37.2606 35.1796 35.9 35.1796L35.9041 35.1755Z" fill="#222222"/>
<path d="M56.6437 0H64.7662C65.4012 0 65.9867 0.340864 66.3041 0.893728L84.3965 32.4901C85.0809 33.6832 84.2233 35.1713 82.8627 35.1713H74.7401C74.1051 35.1713 73.5196 34.8305 73.2063 34.2776L55.1098 2.68119C54.4254 1.48816 55.283 0 56.6437 0Z" fill="#222222"/>
<path d="M93.1126 0H101.219C102.588 0 103.445 1.49648 102.757 2.69366L91.0592 23.0665C90.3748 24.2595 88.6637 24.2595 87.9793 23.0665L83.9427 16.0164C83.6252 15.4636 83.6252 14.7777 83.9427 14.2248L91.5705 0.902042C91.888 0.349178 92.4735 0.00415688 93.1126 0.00415688V0Z" fill="#F9B42D"/>
</g>
<defs>
<clipPath id="clip0_41_13">
<rect width="103" height="32" fill="white"/>
</clipPath>
</defs>
</svg>
